#!OML:ASF F:\VICON\USERDATA\INSTALL\rory3\rory3.ASF
:FULLY-SPECIFIED
:DEGREES
111
root 1.2212808676713478 17.87003722583989 52.58948993549251 -4.191269717787167 0.5275976186124782 0.8437517981404865
lfemur -2.1602279030972484 -3.9464724261042825 -24.89021329962992
ltibia 23.813687994150232
lfoot -7.186944800995899 -0.9254609035589827
ltoes -12.068217291285869
rfemur -17.781284823571433 -0.17727442031085294 20.358999413347583
rtibia 61.50020543868757
rfoot -5.791616904367082 -3.033447007995028
rtoes 5.41447337967739
lowerback 9.426604719991376 -0.46341011335816235 -1.2153526245437711
upperback 0.07938369207265526 -0.7404093597937936 0.7439232392451355
thorax -5.234664057398616 -0.3354207149491681 1.2862802491277872
lowerneck -16.418213184512304 -3.2154833623802164 -1.4745863782697937
upperneck 21.05344665460694 -4.274584842419406 1.3058840714179163
head 9.522093801089714 -2.0087621605307153 0.13851903780792835
lclavicle 3.78310398996088e-16 -8.291174320059256e-16
lhumerus -29.165322302762643 2.0295925398291192 80.053318363733
lradius 26.126996402131883
lwrist 7.069959823921899
lhand -28.185934311660155 19.921840665047363
lfingers nan
lthumb -1.6683754804682198 49.813438738153486
rclavicle 4.2380593551153766e-16 -7.96207599009723e-16
rhumerus -28.300662883033223 -17.616374167980737 -79.93476160568996
rradius 32.9894577717219
rwrist 1.4532985439149058
rhand -18.06798688292195 20.805684123845893
rfingers nan
rthumb 8.649624590242466 -7.82985281167978
112
root 1.2154413691461698 17.85818309796609 53.142773640581616 -3.987492103425541 0.6942909774278756 0.29357261070134366
lfemur 0.08310523608253462 -4.088266138517171 -24.53272732466818
ltibia 23.31059033433374
lfoot -6.680405831260568 -2.7920983685494547
ltoes -11.225351909538338
rfemur -21.171840762755096 -0.446727453128843 20.698969575014303
rtibia 60.997378687643064
rfoot -6.2975129684068385 -1.7434490043306576
rtoes 4.080383116872113
lowerback 9.337759884160237 -0.7714252348548685 -0.9976497151955823
upperback 0.041759516348056636 -1.0630049213524582 0.9432962636929584
thorax -5.269787597324106 -0.5264411106737281 1.5462622601829212
lowerneck -16.45152783677298 -3.1571400327683405 -1.484411728482494
upperneck 21.133082809481053 -4.174038320658255 1.2162984409825857
head 9.551935763800332 -1.9703468723029 0.1340984008129532
lclavicle 3.6772338707688506e-16 -8.349238988771786e-16
lhumerus -28.977441853627017 1.9178120469828999 80.00544828751423
lradius 26.198026174043587
lwrist 6.946401210068612
lhand -28.1750448709409 20.011710314097318
lfingers nan
lthumb -1.594785789383018 50.0516522776776
rclavicle 4.206401971053099e-16 -7.971316639124139e-16
rhumerus -28.70878067807443 -18.03649783745958 -80.13401056443242
rradius 32.93084767517016
rwrist 1.3832830583670002
rhand -18.025919668627147 20.89403314893409
rfingers nan
rthumb 8.659540988051779 -7.79357193811691
113
root 1.1891532548662018 17.84376834621877 53.39213987934541 -3.8595201383490116 0.6130086580696066 0.6473187947495165
lfemur 2.0285348842868327 -4.324309652684391 -25.070422762814193
ltibia 23.35516288693284
lfoot -6.216211103327044 -3.504289426698577
ltoes -9.971505357079481
rfemur -24.23294397245551 -0.4009518921071771 20.1045702874112
rtibia 59.0313471024551
rfoot -6.759052646880192 -1.1295716167286267
rtoes 3.0502214878289218
lowerback 9.322837534960776 -0.9949099393906353 -1.3679836812023218
upperback -0.01650372443741513 -1.4443444169927258 1.0053788820051484
thorax -5.302709829260205 -0.7277813455869937 1.821691802419342
lowerneck -16.478731812013127 -3.079234067893458 -1.495583365312565
upperneck 21.263717918105634 -4.039832175261702 1.0871393119920898
head 9.587311682060385 -1.9205240727210582 0.12754417469207396
lclavicle 3.603784067063882e-16 -8.390813092122997e-16
lhumerus -28.75770873975514 1.78091601431876 80.00970338241699
lradius 26.13045480605595
lwrist 6.877729329984517
lhand -28.1646370931864 20.109414958444457
lfingers nan
lthumb -1.6015059036365398 50.090769175643544
rclavicle 4.1869512461326806e-16 -7.976670864187513e-16
rhumerus -29.160633065001154 -18.346405953184167 -80.22217806656496
rradius 32.95104975618736
rwrist 1.3342893587074358
rhand -18.06483981565 20.80031489453907
rfingers nan
rthumb 8.6492603606999 -7.805686619946952
114
root 1.1973686510021673 17.852980589942725 53.790019384826984 -3.4751086422532023 0.4624812229388029 0.850922104521205
lfemur 3.7496422146742976 -4.509279680273034 -25.273022765776602
ltibia 23.856633587381797
lfoot -5.661530236035348 -4.903577993301861
ltoes -8.61987085165577
rfemur -24.989848200663786 -0.22168578686070317 20.34107729091352
rtibia 55.226810838130945
rfoot -7.00450923870202 -0.7172008865419297
rtoes 2.3042356108947315
lowerback 9.208744278684652 -1.2813362594996847 -1.568906602977075
upperback -0.0603839013453247 -1.8239687235996578 1.0682508845278051
thorax -5.271729247065445 -0.9216411533945685 2.2141504063197623
lowerneck -16.498612338957972 -2.9952040353671046 -1.5219612229288018
upperneck 21.430480658557105 -3.89185642940976 0.9384192878484805
head 9.627421142844964 -1.8653811275263035 0.12099089117861324
lclavicle 3.5275212430717475e-16 -8.433956775215431e-16
lhumerus -28.58284543444734 1.5541460507475136 80.0357560304283
lradius 25.92671720261316
lwrist 6.876714380604627
lhand -28.159012385085244 20.200343015654266
lfingers nan
lthumb -1.5153516661033741 50.332364548247284
rclavicle 4.156316388181063e-16 -7.989696263989424e-16
rhumerus -29.62586101915932 -18.585804337147838 -80.14512699036196
rradius 33.049882503531734
rwrist 1.3082394178507637
rhand -17.996838782153805 20.950034454644413
rfingers nan
rthumb 8.669496717466556 -7.761250136839297
115
root 1.1946457175432998 17.85763959461338 53.62987741571791 -3.342099267452645 -0.19850447118628933 2.0041601420633803
lfemur 5.74238749577464 -4.541410715983417 -26.286314960952154
ltibia 24.412501940270797
lfoot -4.196887839685057 -4.2801798284844
ltoes -7.907529223630837
rfemur -25.064636586545884 -0.08157499431678694 19.628301181048077
rtibia 50.39664423599609
rfoot -7.198343665044206 -0.37024650722776276
rtoes 1.7459141758253092
lowerback 9.093025557738974 -1.416052551140287 -2.326732006481898
upperback -0.07840461343673721 -2.1963821329539446 1.0020656476934504
thorax -5.142531969672855 -1.1097806260599314 2.570642366508343
lowerneck -16.509498781040563 -2.9074978450410005 -1.595539383746165
upperneck 21.615594324085706 -3.734092947373614 0.7921277089175989
head 9.669855507383053 -1.8062338413807937 0.12235116987649963
lclavicle 3.4334491768072387e-16 -8.486531020296497e-16
lhumerus -28.487168692402687 1.3194313084763616 80.07366048566648
lradius 25.625308336054456
lwrist 6.922389562399726
lhand -28.15115685944758 20.25469170233177
lfingers nan
lthumb -1.521575803023342 50.31266187209509
rclavicle 4.119746822557715e-16 -8.004673098607318e-16
rhumerus -30.053358568436522 -18.855399050101425 -79.93079662178098
rradius 33.203251103065895
rwrist 1.3157507411938867
rhand -18.077234932190873 20.76761390347766
rfingers nan
rthumb 8.647989448749666 -7.81906675516648
116
root 1.2195258458770957 17.857913077512112 53.26995742884284 -3.5661329948224267 -0.7086046210151111 2.876956089874226
lfemur 7.61169334408369 -4.634927863306651 -27.018130812748293
ltibia 25.132051640710785
lfoot -3.933194065501761 -5.6826679274913365
ltoes -6.94542558184123
rfemur -24.55850640912593 0.0049321906248152025 19.278812517816153
rtibia 45.45003348164561
rfoot -7.582443254087635 -0.07281580638646545
rtoes 1.2536977921502266
lowerback 9.016572242525854 -1.5478344078405244 -2.958243814289253
upperback -0.06568901400090477 -2.452837858957035 0.9888198858138975
thorax -4.962117489231 -1.2325176227532113 2.871583872256026
lowerneck -16.499186385696802 -2.837964176697678 -1.718265247441116
upperneck 21.771302174056427 -3.6023647136659456 0.6659126622214703
head 9.703380901928758 -1.7576578104397995 0.12372452197875403
lclavicle 3.343336672473011e-16 -8.5385350591097965e-16
lhumerus -28.5091299588088 1.1399589497015574 80.11069509498503
lradius 25.263860928660456
lwrist 6.9815689575226605
lhand -28.13573631959135 20.28714943332025
lfingers nan
lthumb -1.4416124920848383 50.451720398365566
rclavicle 4.0893985856976715e-16 -8.01677959976798e-16
rhumerus -30.381517570670134 -19.18787018381368 -79.627342226571
rradius 33.377039008257
rwrist 1.366767488395201
rhand -17.994272979925604 20.958396356465954
rfingers nan
rthumb 8.672018837372692 -7.780955222732761
117
root 1.2337482326325773 17.8572126479676 53.08257925847883 -3.38837780238331 -1.1160712635350596 2.105192118215454
lfemur 8.256732055433382 -4.7310159012661455 -26.271827508954928
ltibia 26.768872186836266
lfoot -2.995156474183975 -4.8673177246598485
ltoes -6.74444448152496
rfemur -24.190559344619913 0.29114958678240566 20.43260868718921
rtibia 40.87671949080107
rfoot -8.15465626675798 -0.2736648194980722
rtoes 0.879516523448534
lowerback 8.88897206293812 -1.6686326413488932 -2.4352401138187494
upperback -0.10631159516207872 -2.5603670682765416 1.168717929109751
thorax -4.926379886294954 -1.2833663638388744 2.9791529480260213
lowerneck -16.47753975362642 -2.7842668543286155 -1.834240331526571
upperneck 21.883802386840337 -3.4956944153543095 0.5424018751768387
head 9.72293738461271 -1.7202958234146217 0.11465781862020227
lclavicle 3.2504747879418335e-16 -8.595545859868569e-16
lhumerus -28.64630332731565 1.1004627736250354 80.13964086495652
lradius 24.868263768074055
lwrist 7.056544512407046
lhand -28.128240727554093 20.26372831826456
lfingers nan
lthumb -1.4617112007231032 50.32486338179925
rclavicle 4.074291222550217e-16 -8.020113608481945e-16
rhumerus -30.567689161739455 -19.52236210782929 -79.24171199290836
rradius 33.546837635259585
rwrist 1.4778293215406673
rhand -18.101153661811644 20.717845530848713
rfingers nan
rthumb 8.631246754829608 -7.890988730301542
118
root 1.2355301407188257 17.85750283177856 52.82881487671755 -3.305098502328237 -1.6226824871183791 1.8699070940511329
lfemur 8.761886059123782 -4.488138674371963 -25.747865520366535
ltibia 28.81280424963865
lfoot -3.040604377847202 -6.0035147156027175
ltoes -5.81697089166167
rfemur -23.292606935639583 0.696468119044289 21.213850007118463
rtibia 36.8814824719476
rfoot -8.70557077203224 -1.4848233133234388
rtoes 0.7955454277397767
lowerback 8.832102654443059 -1.7391436313763564 -2.298012353482584
upperback -0.11163098189261139 -2.6073432103426777 1.278140882412953
thorax -4.915402367644238 -1.307032582602616 3.0717673282514135
lowerneck -16.46088369742627 -2.7493482475311763 -1.900052854971632
upperneck 21.93961026007934 -3.4221778597947567 0.42059873265804015
head 9.726288502176113 -1.6967852993857178 0.09034155271433447
lclavicle 3.203397037433518e-16 -8.626053272694025e-16
lhumerus -28.848957494650712 1.219155775230817 80.16958677815713
lradius 24.463412093799136
lwrist 7.172777080866
lhand -28.1252311344513 20.251360840571206
lfingers nan
lthumb -1.4160345122804867 50.37753511003879
rclavicle 4.056830621501137e-16 -8.030047038463456e-16
rhumerus -30.680314506131033 -19.88090178245142 -78.82431573474466
rradius 33.69381794102198
rwrist 1.6569044440510896
rhand -18.009824588126836 20.93304467202513
rfingers nan
rthumb 8.664350948700257 -7.829039896222018
